<?xml version="1.0" encoding="utf-8" standalone="no"?>
<!DOCTYPE svg PUBLIC "-//W3C//DTD SVG 1.1//EN"
  "http://www.w3.org/Graphics/SVG/1.1/DTD/svg11.dtd">
<!-- Created with matplotlib (https://matplotlib.org/) -->
<svg height="345.6pt" version="1.1" viewBox="0 0 460.8 345.6" width="460.8pt" xmlns="http://www.w3.org/2000/svg" xmlns:xlink="http://www.w3.org/1999/xlink">
 <metadata>
  <rdf:RDF xmlns:cc="http://creativecommons.org/ns#" xmlns:dc="http://purl.org/dc/elements/1.1/" xmlns:rdf="http://www.w3.org/1999/02/22-rdf-syntax-ns#">
   <cc:Work>
    <dc:type rdf:resource="http://purl.org/dc/dcmitype/StillImage"/>
    <dc:date>2021-03-18T23:31:57.424677</dc:date>
    <dc:format>image/svg+xml</dc:format>
    <dc:creator>
     <cc:Agent>
      <dc:title>Matplotlib v3.3.4, https://matplotlib.org/</dc:title>
     </cc:Agent>
    </dc:creator>
   </cc:Work>
  </rdf:RDF>
 </metadata>
 <defs>
  <style type="text/css">*{stroke-linecap:butt;stroke-linejoin:round;}</style>
 </defs>
 <g id="figure_1">
  <g id="patch_1">
   <path d="M 0 345.6 
L 460.8 345.6 
L 460.8 0 
L 0 0 
z
" style="fill:#ffffff;"/>
  </g>
  <g id="axes_1">
   <g id="patch_2">
    <path d="M 52.94 136.24 
L 225 136.24 
L 225 26.88 
L 52.94 26.88 
z
" style="fill:#ffffff;"/>
   </g>
   <g id="matplotlib.axis_1">
    <g id="xtick_1">
     <g id="line2d_1">
      <defs>
       <path d="M 0 0 
L 0 3.5 
" id="mcdbed37cb7" style="stroke:#000000;stroke-width:0.8;"/>
      </defs>
      <g>
       <use style="stroke:#000000;stroke-width:0.8;" x="60.760909" xlink:href="#mcdbed37cb7" y="136.24"/>
      </g>
     </g>
     <g id="text_1">
      <!-- 0 -->
      <g transform="translate(57.579659 150.838437)scale(0.1 -0.1)">
       <defs>
        <path d="M 31.78125 66.40625 
Q 24.171875 66.40625 20.328125 58.90625 
Q 16.5 51.421875 16.5 36.375 
Q 16.5 21.390625 20.328125 13.890625 
Q 24.171875 6.390625 31.78125 6.390625 
Q 39.453125 6.390625 43.28125 13.890625 
Q 47.125 21.390625 47.125 36.375 
Q 47.125 51.421875 43.28125 58.90625 
Q 39.453125 66.40625 31.78125 66.40625 
z
M 31.78125 74.21875 
Q 44.046875 74.21875 50.515625 64.515625 
Q 56.984375 54.828125 56.984375 36.375 
Q 56.984375 17.96875 50.515625 8.265625 
Q 44.046875 -1.421875 31.78125 -1.421875 
Q 19.53125 -1.421875 13.0625 8.265625 
Q 6.59375 17.96875 6.59375 36.375 
Q 6.59375 54.828125 13.0625 64.515625 
Q 19.53125 74.21875 31.78125 74.21875 
z
" id="DejaVuSans-48"/>
       </defs>
       <use xlink:href="#DejaVuSans-48"/>
      </g>
     </g>
    </g>
    <g id="xtick_2">
     <g id="line2d_2">
      <g>
       <use style="stroke:#000000;stroke-width:0.8;" x="123.334439" xlink:href="#mcdbed37cb7" y="136.24"/>
      </g>
     </g>
     <g id="text_2">
      <!-- 100 -->
      <g transform="translate(113.790689 150.838437)scale(0.1 -0.1)">
       <defs>
        <path d="M 12.40625 8.296875 
L 28.515625 8.296875 
L 28.515625 63.921875 
L 10.984375 60.40625 
L 10.984375 69.390625 
L 28.421875 72.90625 
L 38.28125 72.90625 
L 38.28125 8.296875 
L 54.390625 8.296875 
L 54.390625 0 
L 12.40625 0 
z
" id="DejaVuSans-49"/>
       </defs>
       <use xlink:href="#DejaVuSans-49"/>
       <use x="63.623047" xlink:href="#DejaVuSans-48"/>
       <use x="127.246094" xlink:href="#DejaVuSans-48"/>
      </g>
     </g>
    </g>
    <g id="xtick_3">
     <g id="line2d_3">
      <g>
       <use style="stroke:#000000;stroke-width:0.8;" x="185.907969" xlink:href="#mcdbed37cb7" y="136.24"/>
      </g>
     </g>
     <g id="text_3">
      <!-- 200 -->
      <g transform="translate(176.364219 150.838437)scale(0.1 -0.1)">
       <defs>
        <path d="M 19.1875 8.296875 
L 53.609375 8.296875 
L 53.609375 0 
L 7.328125 0 
L 7.328125 8.296875 
Q 12.9375 14.109375 22.625 23.890625 
Q 32.328125 33.6875 34.8125 36.53125 
Q 39.546875 41.84375 41.421875 45.53125 
Q 43.3125 49.21875 43.3125 52.78125 
Q 43.3125 58.59375 39.234375 62.25 
Q 35.15625 65.921875 28.609375 65.921875 
Q 23.96875 65.921875 18.8125 64.3125 
Q 13.671875 62.703125 7.8125 59.421875 
L 7.8125 69.390625 
Q 13.765625 71.78125 18.9375 73 
Q 24.125 74.21875 28.421875 74.21875 
Q 39.75 74.21875 46.484375 68.546875 
Q 53.21875 62.890625 53.21875 53.421875 
Q 53.21875 48.921875 51.53125 44.890625 
Q 49.859375 40.875 45.40625 35.40625 
Q 44.1875 33.984375 37.640625 27.21875 
Q 31.109375 20.453125 19.1875 8.296875 
z
" id="DejaVuSans-50"/>
       </defs>
       <use xlink:href="#DejaVuSans-50"/>
       <use x="63.623047" xlink:href="#DejaVuSans-48"/>
       <use x="127.246094" xlink:href="#DejaVuSans-48"/>
      </g>
     </g>
    </g>
    <g id="text_4">
     <!-- Time (ms) -->
     <g transform="translate(113.770781 164.516562)scale(0.1 -0.1)">
      <defs>
       <path d="M -0.296875 72.90625 
L 61.375 72.90625 
L 61.375 64.59375 
L 35.5 64.59375 
L 35.5 0 
L 25.59375 0 
L 25.59375 64.59375 
L -0.296875 64.59375 
z
" id="DejaVuSans-84"/>
       <path d="M 9.421875 54.6875 
L 18.40625 54.6875 
L 18.40625 0 
L 9.421875 0 
z
M 9.421875 75.984375 
L 18.40625 75.984375 
L 18.40625 64.59375 
L 9.421875 64.59375 
z
" id="DejaVuSans-105"/>
       <path d="M 52 44.1875 
Q 55.375 50.25 60.0625 53.125 
Q 64.75 56 71.09375 56 
Q 79.640625 56 84.28125 50.015625 
Q 88.921875 44.046875 88.921875 33.015625 
L 88.921875 0 
L 79.890625 0 
L 79.890625 32.71875 
Q 79.890625 40.578125 77.09375 44.375 
Q 74.3125 48.1875 68.609375 48.1875 
Q 61.625 48.1875 57.5625 43.546875 
Q 53.515625 38.921875 53.515625 30.90625 
L 53.515625 0 
L 44.484375 0 
L 44.484375 32.71875 
Q 44.484375 40.625 41.703125 44.40625 
Q 38.921875 48.1875 33.109375 48.1875 
Q 26.21875 48.1875 22.15625 43.53125 
Q 18.109375 38.875 18.109375 30.90625 
L 18.109375 0 
L 9.078125 0 
L 9.078125 54.6875 
L 18.109375 54.6875 
L 18.109375 46.1875 
Q 21.1875 51.21875 25.484375 53.609375 
Q 29.78125 56 35.6875 56 
Q 41.65625 56 45.828125 52.96875 
Q 50 49.953125 52 44.1875 
z
" id="DejaVuSans-109"/>
       <path d="M 56.203125 29.59375 
L 56.203125 25.203125 
L 14.890625 25.203125 
Q 15.484375 15.921875 20.484375 11.0625 
Q 25.484375 6.203125 34.421875 6.203125 
Q 39.59375 6.203125 44.453125 7.46875 
Q 49.3125 8.734375 54.109375 11.28125 
L 54.109375 2.78125 
Q 49.265625 0.734375 44.1875 -0.34375 
Q 39.109375 -1.421875 33.890625 -1.421875 
Q 20.796875 -1.421875 13.15625 6.1875 
Q 5.515625 13.8125 5.515625 26.8125 
Q 5.515625 40.234375 12.765625 48.109375 
Q 20.015625 56 32.328125 56 
Q 43.359375 56 49.78125 48.890625 
Q 56.203125 41.796875 56.203125 29.59375 
z
M 47.21875 32.234375 
Q 47.125 39.59375 43.09375 43.984375 
Q 39.0625 48.390625 32.421875 48.390625 
Q 24.90625 48.390625 20.390625 44.140625 
Q 15.875 39.890625 15.1875 32.171875 
z
" id="DejaVuSans-101"/>
       <path id="DejaVuSans-32"/>
       <path d="M 31 75.875 
Q 24.46875 64.65625 21.28125 53.65625 
Q 18.109375 42.671875 18.109375 31.390625 
Q 18.109375 20.125 21.3125 9.0625 
Q 24.515625 -2 31 -13.1875 
L 23.1875 -13.1875 
Q 15.875 -1.703125 12.234375 9.375 
Q 8.59375 20.453125 8.59375 31.390625 
Q 8.59375 42.28125 12.203125 53.3125 
Q 15.828125 64.359375 23.1875 75.875 
z
" id="DejaVuSans-40"/>
       <path d="M 44.28125 53.078125 
L 44.28125 44.578125 
Q 40.484375 46.53125 36.375 47.5 
Q 32.28125 48.484375 27.875 48.484375 
Q 21.1875 48.484375 17.84375 46.4375 
Q 14.5 44.390625 14.5 40.28125 
Q 14.5 37.15625 16.890625 35.375 
Q 19.28125 33.59375 26.515625 31.984375 
L 29.59375 31.296875 
Q 39.15625 29.25 43.1875 25.515625 
Q 47.21875 21.78125 47.21875 15.09375 
Q 47.21875 7.46875 41.1875 3.015625 
Q 35.15625 -1.421875 24.609375 -1.421875 
Q 20.21875 -1.421875 15.453125 -0.5625 
Q 10.6875 0.296875 5.421875 2 
L 5.421875 11.28125 
Q 10.40625 8.6875 15.234375 7.390625 
Q 20.0625 6.109375 24.8125 6.109375 
Q 31.15625 6.109375 34.5625 8.28125 
Q 37.984375 10.453125 37.984375 14.40625 
Q 37.984375 18.0625 35.515625 20.015625 
Q 33.0625 21.96875 24.703125 23.78125 
L 21.578125 24.515625 
Q 13.234375 26.265625 9.515625 29.90625 
Q 5.8125 33.546875 5.8125 39.890625 
Q 5.8125 47.609375 11.28125 51.796875 
Q 16.75 56 26.8125 56 
Q 31.78125 56 36.171875 55.265625 
Q 40.578125 54.546875 44.28125 53.078125 
z
" id="DejaVuSans-115"/>
       <path d="M 8.015625 75.875 
L 15.828125 75.875 
Q 23.140625 64.359375 26.78125 53.3125 
Q 30.421875 42.28125 30.421875 31.390625 
Q 30.421875 20.453125 26.78125 9.375 
Q 23.140625 -1.703125 15.828125 -13.1875 
L 8.015625 -13.1875 
Q 14.5 -2 17.703125 9.0625 
Q 20.90625 20.125 20.90625 31.390625 
Q 20.90625 42.671875 17.703125 53.65625 
Q 14.5 64.65625 8.015625 75.875 
z
" id="DejaVuSans-41"/>
      </defs>
      <use xlink:href="#DejaVuSans-84"/>
      <use x="57.958984" xlink:href="#DejaVuSans-105"/>
      <use x="85.742188" xlink:href="#DejaVuSans-109"/>
      <use x="183.154297" xlink:href="#DejaVuSans-101"/>
      <use x="244.677734" xlink:href="#DejaVuSans-32"/>
      <use x="276.464844" xlink:href="#DejaVuSans-40"/>
      <use x="315.478516" xlink:href="#DejaVuSans-109"/>
      <use x="412.890625" xlink:href="#DejaVuSans-115"/>
      <use x="464.990234" xlink:href="#DejaVuSans-41"/>
     </g>
    </g>
   </g>
   <g id="matplotlib.axis_2">
    <g id="ytick_1">
     <g id="line2d_4">
      <defs>
       <path d="M 0 0 
L -3.5 0 
" id="mf4ff72d845" style="stroke:#000000;stroke-width:0.8;"/>
      </defs>
      <g>
       <use style="stroke:#000000;stroke-width:0.8;" x="52.94" xlink:href="#mf4ff72d845" y="121.199279"/>
      </g>
     </g>
     <g id="text_5">
      <!-- −60 -->
      <g transform="translate(24.835313 124.998498)scale(0.1 -0.1)">
       <defs>
        <path d="M 10.59375 35.5 
L 73.1875 35.5 
L 73.1875 27.203125 
L 10.59375 27.203125 
z
" id="DejaVuSans-8722"/>
        <path d="M 33.015625 40.375 
Q 26.375 40.375 22.484375 35.828125 
Q 18.609375 31.296875 18.609375 23.390625 
Q 18.609375 15.53125 22.484375 10.953125 
Q 26.375 6.390625 33.015625 6.390625 
Q 39.65625 6.390625 43.53125 10.953125 
Q 47.40625 15.53125 47.40625 23.390625 
Q 47.40625 31.296875 43.53125 35.828125 
Q 39.65625 40.375 33.015625 40.375 
z
M 52.59375 71.296875 
L 52.59375 62.3125 
Q 48.875 64.0625 45.09375 64.984375 
Q 41.3125 65.921875 37.59375 65.921875 
Q 27.828125 65.921875 22.671875 59.328125 
Q 17.53125 52.734375 16.796875 39.40625 
Q 19.671875 43.65625 24.015625 45.921875 
Q 28.375 48.1875 33.59375 48.1875 
Q 44.578125 48.1875 50.953125 41.515625 
Q 57.328125 34.859375 57.328125 23.390625 
Q 57.328125 12.15625 50.6875 5.359375 
Q 44.046875 -1.421875 33.015625 -1.421875 
Q 20.359375 -1.421875 13.671875 8.265625 
Q 6.984375 17.96875 6.984375 36.375 
Q 6.984375 53.65625 15.1875 63.9375 
Q 23.390625 74.21875 37.203125 74.21875 
Q 40.921875 74.21875 44.703125 73.484375 
Q 48.484375 72.75 52.59375 71.296875 
z
" id="DejaVuSans-54"/>
       </defs>
       <use xlink:href="#DejaVuSans-8722"/>
       <use x="83.789062" xlink:href="#DejaVuSans-54"/>
       <use x="147.412109" xlink:href="#DejaVuSans-48"/>
      </g>
     </g>
    </g>
    <g id="ytick_2">
     <g id="line2d_5">
      <g>
       <use style="stroke:#000000;stroke-width:0.8;" x="52.94" xlink:href="#mf4ff72d845" y="96.718741"/>
      </g>
     </g>
     <g id="text_6">
      <!-- −40 -->
      <g transform="translate(24.835313 100.517959)scale(0.1 -0.1)">
       <defs>
        <path d="M 37.796875 64.3125 
L 12.890625 25.390625 
L 37.796875 25.390625 
z
M 35.203125 72.90625 
L 47.609375 72.90625 
L 47.609375 25.390625 
L 58.015625 25.390625 
L 58.015625 17.1875 
L 47.609375 17.1875 
L 47.609375 0 
L 37.796875 0 
L 37.796875 17.1875 
L 4.890625 17.1875 
L 4.890625 26.703125 
z
" id="DejaVuSans-52"/>
       </defs>
       <use xlink:href="#DejaVuSans-8722"/>
       <use x="83.789062" xlink:href="#DejaVuSans-52"/>
       <use x="147.412109" xlink:href="#DejaVuSans-48"/>
      </g>
     </g>
    </g>
    <g id="ytick_3">
     <g id="line2d_6">
      <g>
       <use style="stroke:#000000;stroke-width:0.8;" x="52.94" xlink:href="#mf4ff72d845" y="72.238202"/>
      </g>
     </g>
     <g id="text_7">
      <!-- −20 -->
      <g transform="translate(24.835313 76.037421)scale(0.1 -0.1)">
       <use xlink:href="#DejaVuSans-8722"/>
       <use x="83.789062" xlink:href="#DejaVuSans-50"/>
       <use x="147.412109" xlink:href="#DejaVuSans-48"/>
      </g>
     </g>
    </g>
    <g id="ytick_4">
     <g id="line2d_7">
      <g>
       <use style="stroke:#000000;stroke-width:0.8;" x="52.94" xlink:href="#mf4ff72d845" y="47.757664"/>
      </g>
     </g>
     <g id="text_8">
      <!-- 0 -->
      <g transform="translate(39.5775 51.556883)scale(0.1 -0.1)">
       <use xlink:href="#DejaVuSans-48"/>
      </g>
     </g>
    </g>
    <g id="text_9">
     <!-- Vm (mV) -->
     <g transform="translate(18.755625 103.631875)rotate(-90)scale(0.1 -0.1)">
      <defs>
       <path d="M 28.609375 0 
L 0.78125 72.90625 
L 11.078125 72.90625 
L 34.1875 11.53125 
L 57.328125 72.90625 
L 67.578125 72.90625 
L 39.796875 0 
z
" id="DejaVuSans-86"/>
      </defs>
      <use xlink:href="#DejaVuSans-86"/>
      <use x="68.408203" xlink:href="#DejaVuSans-109"/>
      <use x="165.820312" xlink:href="#DejaVuSans-32"/>
      <use x="197.607422" xlink:href="#DejaVuSans-40"/>
      <use x="236.621094" xlink:href="#DejaVuSans-109"/>
      <use x="334.033203" xlink:href="#DejaVuSans-86"/>
      <use x="402.441406" xlink:href="#DejaVuSans-41"/>
     </g>
    </g>
   </g>
   <g id="line2d_8">
    <path clip-path="url(#pf11c39d86c)" d="M 60.760909 129.86564 
L 217.179091 129.865639 
L 217.179091 129.865639 
" style="fill:none;stroke:#0000ff;stroke-linecap:square;stroke-width:1.5;"/>
   </g>
   <g id="line2d_9">
    <path clip-path="url(#pf11c39d86c)" d="M 60.760909 129.86564 
L 61.527435 129.759668 
L 61.934163 129.34898 
L 63.467214 127.595062 
L 64.18681 127.198624 
L 65.062839 126.981233 
L 66.423814 126.905152 
L 70.553667 126.998662 
L 100.291737 127.729768 
L 138.868318 128.442899 
L 176.381149 128.920019 
L 217.179091 129.269868 
L 217.179091 129.269868 
" style="fill:none;stroke:#0000ff;stroke-linecap:square;stroke-width:1.5;"/>
   </g>
   <g id="line2d_10">
    <path clip-path="url(#pf11c39d86c)" d="M 60.760909 129.86564 
L 61.433575 129.761771 
L 61.715155 129.336748 
L 62.262674 127.985384 
L 63.12306 125.993764 
L 63.670578 125.25161 
L 64.171166 124.931129 
L 64.765615 124.829919 
L 65.985799 124.919023 
L 69.020615 125.087057 
L 100.776682 126.228811 
L 136.42795 127.25898 
L 166.557105 127.933465 
L 205.086756 128.587568 
L 217.179091 128.743622 
L 217.179091 128.743622 
" style="fill:none;stroke:#0000ff;stroke-linecap:square;stroke-width:1.5;"/>
   </g>
   <g id="line2d_11">
    <path clip-path="url(#pf11c39d86c)" d="M 60.760909 129.86564 
L 61.386644 129.76857 
L 61.621295 129.33703 
L 62.028023 127.989315 
L 63.185633 123.95062 
L 63.623648 123.210035 
L 63.983446 122.990052 
L 64.37453 123.025263 
L 66.564604 123.610389 
L 73.71363 123.92055 
L 110.647656 125.420666 
L 145.90784 126.60319 
L 182.090984 127.563871 
L 217.179091 128.260704 
L 217.179091 128.260704 
" style="fill:none;stroke:#0000ff;stroke-linecap:square;stroke-width:1.5;"/>
   </g>
   <g id="line2d_12">
    <path clip-path="url(#pf11c39d86c)" d="M 60.760909 129.86564 
L 61.371001 129.75801 
L 61.574365 129.314457 
L 61.918519 127.924261 
L 63.373354 121.427462 
L 63.670578 121.068495 
L 63.889586 121.092176 
L 64.202453 121.409054 
L 65.078483 122.375195 
L 65.579071 122.554925 
L 66.392527 122.562124 
L 68.285376 122.582454 
L 89.513446 123.589254 
L 119.548741 124.867741 
L 146.611792 125.870544 
L 176.850451 126.822565 
L 210.874808 127.682803 
L 217.179091 127.81651 
L 217.179091 127.81651 
" style="fill:none;stroke:#0000ff;stroke-linecap:square;stroke-width:1.5;"/>
   </g>
   <g id="line2d_13">
    <path clip-path="url(#pf11c39d86c)" d="M 60.760909 129.86564 
L 61.355358 129.75542 
L 61.543078 129.29283 
L 61.871589 127.730838 
L 62.700689 122.243677 
L 63.295137 119.0839 
L 63.545431 118.629489 
L 63.686222 118.706791 
L 63.889586 119.181908 
L 64.812545 121.739275 
L 65.141056 121.933471 
L 65.547784 121.887567 
L 66.908758 121.584531 
L 68.426167 121.693842 
L 74.386295 121.997271 
L 110.710229 123.728072 
L 146.690009 125.214796 
L 182.607216 126.457599 
L 217.179091 127.413589 
L 217.179091 127.413589 
" style="fill:none;stroke:#0000ff;stroke-linecap:square;stroke-width:1.5;"/>
   </g>
   <g id="line2d_14">
    <path clip-path="url(#pf11c39d86c)" d="M 60.760909 129.86564 
L 61.339714 129.759133 
L 61.527435 129.244576 
L 61.840302 127.532703 
L 62.450394 122.647135 
L 63.608005 113.297489 
L 63.686222 113.451911 
L 63.827012 114.522512 
L 64.577894 121.829655 
L 64.812545 122.168841 
L 65.015909 122.109536 
L 65.375707 121.675849 
L 66.095303 120.840115 
L 66.533317 120.667331 
L 67.065192 120.721926 
L 68.598244 120.972634 
L 86.33784 121.859619 
L 132.235524 124.017555 
L 171.609918 125.58648 
L 205.962786 126.71098 
L 217.179091 127.02826 
L 217.179091 127.02826 
" style="fill:none;stroke:#0000ff;stroke-linecap:square;stroke-width:1.5;"/>
   </g>
   <g id="line2d_15">
    <path clip-path="url(#pf11c39d86c)" d="M 60.760909 129.86564 
L 61.324071 129.76756 
L 61.496148 129.280103 
L 61.777729 127.633602 
L 62.278317 123.12366 
L 62.778905 116.75462 
L 63.0292 110.704458 
L 63.154347 101.96437 
L 63.248207 71.838272 
L 63.31078 46.797789 
L 63.373354 57.71548 
L 63.701865 118.401357 
L 63.905229 126.971847 
L 64.046019 127.769529 
L 64.077306 127.74062 
L 64.202453 127.273374 
L 65.704218 119.84981 
L 66.048372 119.347312 
L 66.298667 119.318573 
L 66.564604 119.539428 
L 66.752325 120.05806 
L 67.127766 122.035746 
L 67.581424 123.94125 
L 67.909935 124.500615 
L 68.207159 124.615226 
L 68.5826 124.490238 
L 70.178225 123.739627 
L 71.367122 123.623324 
L 85.884181 122.844614 
L 94.613189 122.738293 
L 105.469696 122.837331 
L 119.642601 123.19932 
L 144.89102 124.11678 
L 203.976076 126.275119 
L 217.179091 126.674959 
L 217.179091 126.674959 
" style="fill:none;stroke:#0000ff;stroke-linecap:square;stroke-width:1.5;"/>
   </g>
   <g id="line2d_16">
    <path clip-path="url(#pf11c39d86c)" d="M 60.760909 129.86564 
L 61.308427 129.779209 
L 61.464861 129.337671 
L 61.730799 127.708674 
L 62.168814 123.387547 
L 62.575541 117.336003 
L 62.778905 111.112078 
L 62.888409 100.86448 
L 62.966626 67.18421 
L 63.0292 38.098641 
L 63.091773 51.405424 
L 63.404641 117.421323 
L 63.576718 122.481273 
L 63.608005 122.497028 
L 63.639291 122.426366 
L 63.733152 122.222436 
L 63.780082 122.336656 
L 63.920872 123.642218 
L 64.249383 126.303109 
L 64.358887 126.412873 
L 64.390174 126.389511 
L 64.530964 126.06042 
L 64.828189 124.639802 
L 66.26738 116.98656 
L 66.36124 117.066824 
L 66.50203 117.674249 
L 66.830542 120.571171 
L 67.237269 123.325783 
L 67.534494 124.096181 
L 67.784788 124.24479 
L 68.066369 124.127303 
L 68.832894 123.42182 
L 69.45863 123.039568 
L 70.131295 122.906361 
L 78.703869 122.413584 
L 86.666351 122.162668 
L 95.583079 122.114876 
L 106.721167 122.286728 
L 123.913244 122.809124 
L 148.551572 123.784733 
L 206.854458 126.009686 
L 217.179091 126.346433 
L 217.179091 126.346433 
" style="fill:none;stroke:#0000ff;stroke-linecap:square;stroke-width:1.5;"/>
   </g>
   <g id="line2d_17">
    <path clip-path="url(#pf11c39d86c)" d="M 60.760909 129.86564 
L 61.308427 129.768647 
L 61.464861 129.274205 
L 61.715155 127.588034 
L 62.121883 123.14011 
L 62.466038 117.104463 
L 62.638115 110.198359 
L 62.731975 97.125729 
L 62.857122 31.850909 
L 62.950983 60.2019 
L 63.21692 119.258323 
L 63.435928 129.86397 
L 63.623648 131.269091 
L 63.701865 131.121976 
L 63.889586 130.003231 
L 64.671755 123.068295 
L 65.704218 114.923971 
L 65.907582 114.428962 
L 65.923225 114.435681 
L 66.017086 114.63657 
L 66.173519 115.656478 
L 66.595891 120.779687 
L 66.940045 123.30656 
L 67.221626 124.037367 
L 67.440633 124.136544 
L 67.690928 123.985484 
L 68.285376 123.255978 
L 68.926755 122.629301 
L 69.45863 122.415969 
L 70.272086 122.373208 
L 72.008501 122.274562 
L 76.451222 121.938237 
L 82.724218 121.673785 
L 90.936994 121.558396 
L 101.199053 121.646737 
L 114.480285 121.988831 
L 135.098263 122.775896 
L 217.179091 126.033613 
L 217.179091 126.033613 
" style="fill:none;stroke:#0000ff;stroke-linecap:square;stroke-width:1.5;"/>
   </g>
   <g id="patch_3">
    <path d="M 52.94 136.24 
L 52.94 26.88 
" style="fill:none;stroke:#000000;stroke-linecap:square;stroke-linejoin:miter;stroke-width:0.8;"/>
   </g>
   <g id="patch_4">
    <path d="M 225 136.24 
L 225 26.88 
" style="fill:none;stroke:#000000;stroke-linecap:square;stroke-linejoin:miter;stroke-width:0.8;"/>
   </g>
   <g id="patch_5">
    <path d="M 52.94 136.24 
L 225 136.24 
" style="fill:none;stroke:#000000;stroke-linecap:square;stroke-linejoin:miter;stroke-width:0.8;"/>
   </g>
   <g id="patch_6">
    <path d="M 52.94 26.88 
L 225 26.88 
" style="fill:none;stroke:#000000;stroke-linecap:square;stroke-linejoin:miter;stroke-width:0.8;"/>
   </g>
   <g id="text_10">
    <!-- Apical only -->
    <g transform="translate(106.148125 20.88)scale(0.12 -0.12)">
     <defs>
      <path d="M 34.1875 63.1875 
L 20.796875 26.90625 
L 47.609375 26.90625 
z
M 28.609375 72.90625 
L 39.796875 72.90625 
L 67.578125 0 
L 57.328125 0 
L 50.6875 18.703125 
L 17.828125 18.703125 
L 11.1875 0 
L 0.78125 0 
z
" id="DejaVuSans-65"/>
      <path d="M 18.109375 8.203125 
L 18.109375 -20.796875 
L 9.078125 -20.796875 
L 9.078125 54.6875 
L 18.109375 54.6875 
L 18.109375 46.390625 
Q 20.953125 51.265625 25.265625 53.625 
Q 29.59375 56 35.59375 56 
Q 45.5625 56 51.78125 48.09375 
Q 58.015625 40.1875 58.015625 27.296875 
Q 58.015625 14.40625 51.78125 6.484375 
Q 45.5625 -1.421875 35.59375 -1.421875 
Q 29.59375 -1.421875 25.265625 0.953125 
Q 20.953125 3.328125 18.109375 8.203125 
z
M 48.6875 27.296875 
Q 48.6875 37.203125 44.609375 42.84375 
Q 40.53125 48.484375 33.40625 48.484375 
Q 26.265625 48.484375 22.1875 42.84375 
Q 18.109375 37.203125 18.109375 27.296875 
Q 18.109375 17.390625 22.1875 11.75 
Q 26.265625 6.109375 33.40625 6.109375 
Q 40.53125 6.109375 44.609375 11.75 
Q 48.6875 17.390625 48.6875 27.296875 
z
" id="DejaVuSans-112"/>
      <path d="M 48.78125 52.59375 
L 48.78125 44.1875 
Q 44.96875 46.296875 41.140625 47.34375 
Q 37.3125 48.390625 33.40625 48.390625 
Q 24.65625 48.390625 19.8125 42.84375 
Q 14.984375 37.3125 14.984375 27.296875 
Q 14.984375 17.28125 19.8125 11.734375 
Q 24.65625 6.203125 33.40625 6.203125 
Q 37.3125 6.203125 41.140625 7.25 
Q 44.96875 8.296875 48.78125 10.40625 
L 48.78125 2.09375 
Q 45.015625 0.34375 40.984375 -0.53125 
Q 36.96875 -1.421875 32.421875 -1.421875 
Q 20.0625 -1.421875 12.78125 6.34375 
Q 5.515625 14.109375 5.515625 27.296875 
Q 5.515625 40.671875 12.859375 48.328125 
Q 20.21875 56 33.015625 56 
Q 37.15625 56 41.109375 55.140625 
Q 45.0625 54.296875 48.78125 52.59375 
z
" id="DejaVuSans-99"/>
      <path d="M 34.28125 27.484375 
Q 23.390625 27.484375 19.1875 25 
Q 14.984375 22.515625 14.984375 16.5 
Q 14.984375 11.71875 18.140625 8.90625 
Q 21.296875 6.109375 26.703125 6.109375 
Q 34.1875 6.109375 38.703125 11.40625 
Q 43.21875 16.703125 43.21875 25.484375 
L 43.21875 27.484375 
z
M 52.203125 31.203125 
L 52.203125 0 
L 43.21875 0 
L 43.21875 8.296875 
Q 40.140625 3.328125 35.546875 0.953125 
Q 30.953125 -1.421875 24.3125 -1.421875 
Q 15.921875 -1.421875 10.953125 3.296875 
Q 6 8.015625 6 15.921875 
Q 6 25.140625 12.171875 29.828125 
Q 18.359375 34.515625 30.609375 34.515625 
L 43.21875 34.515625 
L 43.21875 35.40625 
Q 43.21875 41.609375 39.140625 45 
Q 35.0625 48.390625 27.6875 48.390625 
Q 23 48.390625 18.546875 47.265625 
Q 14.109375 46.140625 10.015625 43.890625 
L 10.015625 52.203125 
Q 14.9375 54.109375 19.578125 55.046875 
Q 24.21875 56 28.609375 56 
Q 40.484375 56 46.34375 49.84375 
Q 52.203125 43.703125 52.203125 31.203125 
z
" id="DejaVuSans-97"/>
      <path d="M 9.421875 75.984375 
L 18.40625 75.984375 
L 18.40625 0 
L 9.421875 0 
z
" id="DejaVuSans-108"/>
      <path d="M 30.609375 48.390625 
Q 23.390625 48.390625 19.1875 42.75 
Q 14.984375 37.109375 14.984375 27.296875 
Q 14.984375 17.484375 19.15625 11.84375 
Q 23.34375 6.203125 30.609375 6.203125 
Q 37.796875 6.203125 41.984375 11.859375 
Q 46.1875 17.53125 46.1875 27.296875 
Q 46.1875 37.015625 41.984375 42.703125 
Q 37.796875 48.390625 30.609375 48.390625 
z
M 30.609375 56 
Q 42.328125 56 49.015625 48.375 
Q 55.71875 40.765625 55.71875 27.296875 
Q 55.71875 13.875 49.015625 6.21875 
Q 42.328125 -1.421875 30.609375 -1.421875 
Q 18.84375 -1.421875 12.171875 6.21875 
Q 5.515625 13.875 5.515625 27.296875 
Q 5.515625 40.765625 12.171875 48.375 
Q 18.84375 56 30.609375 56 
z
" id="DejaVuSans-111"/>
      <path d="M 54.890625 33.015625 
L 54.890625 0 
L 45.90625 0 
L 45.90625 32.71875 
Q 45.90625 40.484375 42.875 44.328125 
Q 39.84375 48.1875 33.796875 48.1875 
Q 26.515625 48.1875 22.3125 43.546875 
Q 18.109375 38.921875 18.109375 30.90625 
L 18.109375 0 
L 9.078125 0 
L 9.078125 54.6875 
L 18.109375 54.6875 
L 18.109375 46.1875 
Q 21.34375 51.125 25.703125 53.5625 
Q 30.078125 56 35.796875 56 
Q 45.21875 56 50.046875 50.171875 
Q 54.890625 44.34375 54.890625 33.015625 
z
" id="DejaVuSans-110"/>
      <path d="M 32.171875 -5.078125 
Q 28.375 -14.84375 24.75 -17.8125 
Q 21.140625 -20.796875 15.09375 -20.796875 
L 7.90625 -20.796875 
L 7.90625 -13.28125 
L 13.1875 -13.28125 
Q 16.890625 -13.28125 18.9375 -11.515625 
Q 21 -9.765625 23.484375 -3.21875 
L 25.09375 0.875 
L 2.984375 54.6875 
L 12.5 54.6875 
L 29.59375 11.921875 
L 46.6875 54.6875 
L 56.203125 54.6875 
z
" id="DejaVuSans-121"/>
     </defs>
     <use xlink:href="#DejaVuSans-65"/>
     <use x="68.408203" xlink:href="#DejaVuSans-112"/>
     <use x="131.884766" xlink:href="#DejaVuSans-105"/>
     <use x="159.667969" xlink:href="#DejaVuSans-99"/>
     <use x="214.648438" xlink:href="#DejaVuSans-97"/>
     <use x="275.927734" xlink:href="#DejaVuSans-108"/>
     <use x="303.710938" xlink:href="#DejaVuSans-32"/>
     <use x="335.498047" xlink:href="#DejaVuSans-111"/>
     <use x="396.679688" xlink:href="#DejaVuSans-110"/>
     <use x="460.058594" xlink:href="#DejaVuSans-108"/>
     <use x="487.841797" xlink:href="#DejaVuSans-121"/>
    </g>
   </g>
  </g>
  <g id="axes_2">
   <g id="patch_7">
    <path d="M 277.94 136.24 
L 450 136.24 
L 450 26.88 
L 277.94 26.88 
z
" style="fill:#ffffff;"/>
   </g>
   <g id="matplotlib.axis_3">
    <g id="xtick_4">
     <g id="line2d_18">
      <g>
       <use style="stroke:#000000;stroke-width:0.8;" x="285.760909" xlink:href="#mcdbed37cb7" y="136.24"/>
      </g>
     </g>
     <g id="text_11">
      <!-- 0 -->
      <g transform="translate(282.579659 150.838437)scale(0.1 -0.1)">
       <use xlink:href="#DejaVuSans-48"/>
      </g>
     </g>
    </g>
    <g id="xtick_5">
     <g id="line2d_19">
      <g>
       <use style="stroke:#000000;stroke-width:0.8;" x="348.334439" xlink:href="#mcdbed37cb7" y="136.24"/>
      </g>
     </g>
     <g id="text_12">
      <!-- 100 -->
      <g transform="translate(338.790689 150.838437)scale(0.1 -0.1)">
       <use xlink:href="#DejaVuSans-49"/>
       <use x="63.623047" xlink:href="#DejaVuSans-48"/>
       <use x="127.246094" xlink:href="#DejaVuSans-48"/>
      </g>
     </g>
    </g>
    <g id="xtick_6">
     <g id="line2d_20">
      <g>
       <use style="stroke:#000000;stroke-width:0.8;" x="410.907969" xlink:href="#mcdbed37cb7" y="136.24"/>
      </g>
     </g>
     <g id="text_13">
      <!-- 200 -->
      <g transform="translate(401.364219 150.838437)scale(0.1 -0.1)">
       <use xlink:href="#DejaVuSans-50"/>
       <use x="63.623047" xlink:href="#DejaVuSans-48"/>
       <use x="127.246094" xlink:href="#DejaVuSans-48"/>
      </g>
     </g>
    </g>
    <g id="text_14">
     <!-- Time (ms) -->
     <g transform="translate(338.770781 164.516562)scale(0.1 -0.1)">
      <use xlink:href="#DejaVuSans-84"/>
      <use x="57.958984" xlink:href="#DejaVuSans-105"/>
      <use x="85.742188" xlink:href="#DejaVuSans-109"/>
      <use x="183.154297" xlink:href="#DejaVuSans-101"/>
      <use x="244.677734" xlink:href="#DejaVuSans-32"/>
      <use x="276.464844" xlink:href="#DejaVuSans-40"/>
      <use x="315.478516" xlink:href="#DejaVuSans-109"/>
      <use x="412.890625" xlink:href="#DejaVuSans-115"/>
      <use x="464.990234" xlink:href="#DejaVuSans-41"/>
     </g>
    </g>
   </g>
   <g id="matplotlib.axis_4">
    <g id="ytick_5">
     <g id="line2d_21">
      <g>
       <use style="stroke:#000000;stroke-width:0.8;" x="277.94" xlink:href="#mf4ff72d845" y="120.876469"/>
      </g>
     </g>
     <g id="text_15">
      <!-- −60 -->
      <g transform="translate(249.835312 124.675688)scale(0.1 -0.1)">
       <use xlink:href="#DejaVuSans-8722"/>
       <use x="83.789062" xlink:href="#DejaVuSans-54"/>
       <use x="147.412109" xlink:href="#DejaVuSans-48"/>
      </g>
     </g>
    </g>
    <g id="ytick_6">
     <g id="line2d_22">
      <g>
       <use style="stroke:#000000;stroke-width:0.8;" x="277.94" xlink:href="#mf4ff72d845" y="97.270213"/>
      </g>
     </g>
     <g id="text_16">
      <!-- −40 -->
      <g transform="translate(249.835312 101.069432)scale(0.1 -0.1)">
       <use xlink:href="#DejaVuSans-8722"/>
       <use x="83.789062" xlink:href="#DejaVuSans-52"/>
       <use x="147.412109" xlink:href="#DejaVuSans-48"/>
      </g>
     </g>
    </g>
    <g id="ytick_7">
     <g id="line2d_23">
      <g>
       <use style="stroke:#000000;stroke-width:0.8;" x="277.94" xlink:href="#mf4ff72d845" y="73.663957"/>
      </g>
     </g>
     <g id="text_17">
      <!-- −20 -->
      <g transform="translate(249.835312 77.463176)scale(0.1 -0.1)">
       <use xlink:href="#DejaVuSans-8722"/>
       <use x="83.789062" xlink:href="#DejaVuSans-50"/>
       <use x="147.412109" xlink:href="#DejaVuSans-48"/>
      </g>
     </g>
    </g>
    <g id="ytick_8">
     <g id="line2d_24">
      <g>
       <use style="stroke:#000000;stroke-width:0.8;" x="277.94" xlink:href="#mf4ff72d845" y="50.057701"/>
      </g>
     </g>
     <g id="text_18">
      <!-- 0 -->
      <g transform="translate(264.5775 53.85692)scale(0.1 -0.1)">
       <use xlink:href="#DejaVuSans-48"/>
      </g>
     </g>
    </g>
    <g id="text_19">
     <!-- Vm (mV) -->
     <g transform="translate(243.755625 103.631875)rotate(-90)scale(0.1 -0.1)">
      <use xlink:href="#DejaVuSans-86"/>
      <use x="68.408203" xlink:href="#DejaVuSans-109"/>
      <use x="165.820312" xlink:href="#DejaVuSans-32"/>
      <use x="197.607422" xlink:href="#DejaVuSans-40"/>
      <use x="236.621094" xlink:href="#DejaVuSans-109"/>
      <use x="334.033203" xlink:href="#DejaVuSans-86"/>
      <use x="402.441406" xlink:href="#DejaVuSans-41"/>
     </g>
    </g>
   </g>
   <g id="line2d_25">
    <path clip-path="url(#p69821b435c)" d="M 285.760909 129.233326 
L 442.179091 129.233325 
L 442.179091 129.233325 
" style="fill:none;stroke:#ff0000;stroke-linecap:square;stroke-width:1.5;"/>
   </g>
   <g id="line2d_26">
    <path clip-path="url(#p69821b435c)" d="M 285.760909 129.233326 
L 286.636939 129.125306 
L 287.05931 128.728312 
L 288.373354 127.366567 
L 289.061663 127.026174 
L 289.906405 126.869614 
L 291.251736 126.876211 
L 295.741387 127.238523 
L 305.706222 127.935753 
L 315.358189 128.395166 
L 328.107546 128.778301 
L 344.564384 129.037323 
L 369.108851 129.178954 
L 426.12898 129.230682 
L 442.179091 129.232201 
L 442.179091 129.232201 
" style="fill:none;stroke:#ff0000;stroke-linecap:square;stroke-width:1.5;"/>
   </g>
   <g id="line2d_27">
    <path clip-path="url(#p69821b435c)" d="M 285.760909 129.233326 
L 286.527435 129.132196 
L 286.809016 128.756542 
L 287.372177 127.507161 
L 288.138703 125.972974 
L 288.654935 125.39982 
L 289.155523 125.161846 
L 289.781258 125.130126 
L 291.36124 125.371308 
L 295.66317 125.932705 
L 304.345248 126.857979 
L 313.105542 127.573235 
L 323.023446 128.164963 
L 334.662123 128.610335 
L 349.007105 128.927317 
L 368.63955 129.123212 
L 404.103098 129.216303 
L 442.179091 129.231077 
L 442.179091 129.231077 
" style="fill:none;stroke:#ff0000;stroke-linecap:square;stroke-width:1.5;"/>
   </g>
   <g id="line2d_28">
    <path clip-path="url(#p69821b435c)" d="M 285.760909 129.233326 
L 286.480505 129.133529 
L 286.715155 128.755774 
L 287.10624 127.605243 
L 288.154347 124.407314 
L 288.576718 123.805111 
L 288.936516 123.635015 
L 289.358887 123.693437 
L 291.924402 124.432759 
L 299.933814 125.52809 
L 308.553317 126.520897 
L 317.470045 127.332383 
L 327.560027 128.007738 
L 337.962877 128.469336 
L 351.181535 128.83054 
L 368.545689 129.068776 
L 396.312693 129.194874 
L 442.179091 129.229954 
L 442.179091 129.229954 
" style="fill:none;stroke:#ff0000;stroke-linecap:square;stroke-width:1.5;"/>
   </g>
   <g id="line2d_29">
    <path clip-path="url(#p69821b435c)" d="M 285.760909 129.233326 
L 286.449218 129.136945 
L 286.668225 128.733273 
L 287.01238 127.497986 
L 288.248207 122.621039 
L 288.576718 122.204779 
L 288.827012 122.195056 
L 289.171166 122.446531 
L 290.20363 123.293991 
L 290.891939 123.494634 
L 295.115652 124.101897 
L 304.063667 125.368085 
L 313.340192 126.458212 
L 322.444641 127.299343 
L 332.534623 127.984121 
L 342.702821 128.445439 
L 355.780689 128.814122 
L 372.84762 129.059117 
L 399.644734 129.190444 
L 442.179091 129.228832 
L 442.179091 129.228832 
" style="fill:none;stroke:#ff0000;stroke-linecap:square;stroke-width:1.5;"/>
   </g>
   <g id="line2d_30">
    <path clip-path="url(#p69821b435c)" d="M 285.760909 129.233326 
L 286.433575 129.132561 
L 286.636939 128.711058 
L 286.949806 127.409363 
L 288.373354 120.646059 
L 288.576718 120.563751 
L 288.764439 120.754104 
L 289.18681 121.62914 
L 289.718685 122.517309 
L 290.141056 122.80517 
L 290.688575 122.885556 
L 292.51885 123.02892 
L 302.624475 124.59941 
L 313.074255 125.966844 
L 321.944053 126.898187 
L 330.829494 127.610919 
L 340.747399 128.189952 
L 352.526866 128.629916 
L 367.075211 128.940617 
L 387.114384 129.130319 
L 424.048411 129.21861 
L 442.179091 129.22771 
L 442.179091 129.22771 
" style="fill:none;stroke:#ff0000;stroke-linecap:square;stroke-width:1.5;"/>
   </g>
   <g id="line2d_31">
    <path clip-path="url(#p69821b435c)" d="M 285.760909 129.233326 
L 286.417931 129.133332 
L 286.605652 128.717418 
L 286.887233 127.430652 
L 287.466038 123.445723 
L 288.201277 118.791796 
L 288.420284 118.396398 
L 288.529788 118.498555 
L 288.717508 119.083262 
L 289.577894 122.253268 
L 289.890762 122.520042 
L 290.25056 122.519311 
L 291.627178 122.30227 
L 293.019439 122.561561 
L 297.618593 123.32171 
L 308.146589 124.895234 
L 317.329255 126.064243 
L 326.261626 126.980313 
L 335.225285 127.677709 
L 345.080616 128.231836 
L 357.047803 128.661029 
L 371.92466 128.961334 
L 392.667785 129.14121 
L 432.652271 129.222149 
L 442.179091 129.226589 
L 442.179091 129.226589 
" style="fill:none;stroke:#ff0000;stroke-linecap:square;stroke-width:1.5;"/>
   </g>
   <g id="line2d_32">
    <path clip-path="url(#p69821b435c)" d="M 285.760909 129.233326 
L 286.402288 129.138077 
L 286.574365 128.746378 
L 286.840302 127.447467 
L 287.309604 123.80004 
L 288.498501 113.148558 
L 288.576718 113.336575 
L 288.717508 114.66229 
L 289.37453 122.276454 
L 289.624825 122.847704 
L 289.828189 122.867931 
L 290.125413 122.59374 
L 290.923225 121.804848 
L 291.36124 121.700769 
L 291.971332 121.820255 
L 293.660817 122.209854 
L 314.888887 125.412952 
L 324.118483 126.487818 
L 333.160358 127.31624 
L 343.265983 127.99687 
L 353.574972 128.45883 
L 366.731057 128.823324 
L 383.954421 129.064477 
L 411.28341 129.192931 
L 442.179091 129.225469 
L 442.179091 129.225469 
" style="fill:none;stroke:#ff0000;stroke-linecap:square;stroke-width:1.5;"/>
   </g>
   <g id="line2d_33">
    <path clip-path="url(#p69821b435c)" d="M 285.760909 129.233326 
L 286.402288 129.124902 
L 286.574365 128.68022 
L 286.840302 127.206288 
L 287.278317 123.283284 
L 287.716332 117.500797 
L 287.950983 111.620892 
L 288.07613 102.609262 
L 288.154347 78.399828 
L 288.232564 44.555343 
L 288.295137 57.638708 
L 288.608005 118.427899 
L 288.811369 127.21671 
L 288.967803 128.177843 
L 288.983446 128.175234 
L 289.077306 127.96621 
L 289.358887 126.493124 
L 290.125413 122.589737 
L 290.594714 121.212523 
L 290.923225 120.806692 
L 291.204806 120.778672 
L 291.50203 120.985607 
L 291.705394 121.47283 
L 292.112122 123.309757 
L 292.581424 124.985845 
L 292.941222 125.560424 
L 293.301019 125.749464 
L 293.801608 125.728847 
L 295.444163 125.544672 
L 297.79067 125.69662 
L 327.52874 127.708616 
L 340.15295 128.301859 
L 354.325855 128.729258 
L 371.439715 129.011738 
L 395.421021 129.167964 
L 442.179091 129.227743 
L 442.179091 129.227743 
" style="fill:none;stroke:#ff0000;stroke-linecap:square;stroke-width:1.5;"/>
   </g>
   <g id="line2d_34">
    <path clip-path="url(#p69821b435c)" d="M 285.760909 129.233326 
L 286.386644 129.135133 
L 286.543078 128.739809 
L 286.793372 127.327658 
L 287.184457 123.583872 
L 287.544255 118.125417 
L 287.731975 111.973965 
L 287.841479 99.225887 
L 287.966626 31.850909 
L 288.060486 60.281428 
L 288.326424 121.262808 
L 288.529788 130.071219 
L 288.717508 131.269091 
L 288.795725 131.124695 
L 288.999089 130.028552 
L 290.516497 120.331338 
L 290.813722 119.740799 
L 291.001442 119.748345 
L 291.204806 120.030274 
L 291.423814 120.778684 
L 292.456277 125.185608 
L 292.784788 125.491724 
L 293.144586 125.524707 
L 293.973685 125.279315 
L 294.881001 125.142891 
L 296.414053 125.20111 
L 311.275266 126.262265 
L 328.795854 127.514893 
L 341.451351 128.184757 
L 354.8108 128.643006 
L 370.673189 128.955296 
L 392.13591 129.139984 
L 432.401977 129.221988 
L 442.179091 129.226576 
L 442.179091 129.226576 
" style="fill:none;stroke:#ff0000;stroke-linecap:square;stroke-width:1.5;"/>
   </g>
   <g id="patch_8">
    <path d="M 277.94 136.24 
L 277.94 26.88 
" style="fill:none;stroke:#000000;stroke-linecap:square;stroke-linejoin:miter;stroke-width:0.8;"/>
   </g>
   <g id="patch_9">
    <path d="M 450 136.24 
L 450 26.88 
" style="fill:none;stroke:#000000;stroke-linecap:square;stroke-linejoin:miter;stroke-width:0.8;"/>
   </g>
   <g id="patch_10">
    <path d="M 277.94 136.24 
L 450 136.24 
" style="fill:none;stroke:#000000;stroke-linecap:square;stroke-linejoin:miter;stroke-width:0.8;"/>
   </g>
   <g id="patch_11">
    <path d="M 277.94 26.88 
L 450 26.88 
" style="fill:none;stroke:#000000;stroke-linecap:square;stroke-linejoin:miter;stroke-width:0.8;"/>
   </g>
   <g id="text_20">
    <!-- Basal only -->
    <g transform="translate(333.108437 20.88)scale(0.12 -0.12)">
     <defs>
      <path d="M 19.671875 34.8125 
L 19.671875 8.109375 
L 35.5 8.109375 
Q 43.453125 8.109375 47.28125 11.40625 
Q 51.125 14.703125 51.125 21.484375 
Q 51.125 28.328125 47.28125 31.5625 
Q 43.453125 34.8125 35.5 34.8125 
z
M 19.671875 64.796875 
L 19.671875 42.828125 
L 34.28125 42.828125 
Q 41.5 42.828125 45.03125 45.53125 
Q 48.578125 48.25 48.578125 53.8125 
Q 48.578125 59.328125 45.03125 62.0625 
Q 41.5 64.796875 34.28125 64.796875 
z
M 9.8125 72.90625 
L 35.015625 72.90625 
Q 46.296875 72.90625 52.390625 68.21875 
Q 58.5 63.53125 58.5 54.890625 
Q 58.5 48.1875 55.375 44.234375 
Q 52.25 40.28125 46.1875 39.3125 
Q 53.46875 37.75 57.5 32.78125 
Q 61.53125 27.828125 61.53125 20.40625 
Q 61.53125 10.640625 54.890625 5.3125 
Q 48.25 0 35.984375 0 
L 9.8125 0 
z
" id="DejaVuSans-66"/>
     </defs>
     <use xlink:href="#DejaVuSans-66"/>
     <use x="68.603516" xlink:href="#DejaVuSans-97"/>
     <use x="129.882812" xlink:href="#DejaVuSans-115"/>
     <use x="181.982422" xlink:href="#DejaVuSans-97"/>
     <use x="243.261719" xlink:href="#DejaVuSans-108"/>
     <use x="271.044922" xlink:href="#DejaVuSans-32"/>
     <use x="302.832031" xlink:href="#DejaVuSans-111"/>
     <use x="364.013672" xlink:href="#DejaVuSans-110"/>
     <use x="427.392578" xlink:href="#DejaVuSans-108"/>
     <use x="455.175781" xlink:href="#DejaVuSans-121"/>
    </g>
   </g>
  </g>
  <g id="axes_3">
   <g id="patch_12">
    <path d="M 52.94 303.64 
L 225 303.64 
L 225 194.28 
L 52.94 194.28 
z
" style="fill:#ffffff;"/>
   </g>
   <g id="matplotlib.axis_5">
    <g id="xtick_7">
     <g id="line2d_35">
      <g>
       <use style="stroke:#000000;stroke-width:0.8;" x="60.760909" xlink:href="#mcdbed37cb7" y="303.64"/>
      </g>
     </g>
     <g id="text_21">
      <!-- 0 -->
      <g transform="translate(57.579659 318.238438)scale(0.1 -0.1)">
       <use xlink:href="#DejaVuSans-48"/>
      </g>
     </g>
    </g>
    <g id="xtick_8">
     <g id="line2d_36">
      <g>
       <use style="stroke:#000000;stroke-width:0.8;" x="123.334439" xlink:href="#mcdbed37cb7" y="303.64"/>
      </g>
     </g>
     <g id="text_22">
      <!-- 100 -->
      <g transform="translate(113.790689 318.238438)scale(0.1 -0.1)">
       <use xlink:href="#DejaVuSans-49"/>
       <use x="63.623047" xlink:href="#DejaVuSans-48"/>
       <use x="127.246094" xlink:href="#DejaVuSans-48"/>
      </g>
     </g>
    </g>
    <g id="xtick_9">
     <g id="line2d_37">
      <g>
       <use style="stroke:#000000;stroke-width:0.8;" x="185.907969" xlink:href="#mcdbed37cb7" y="303.64"/>
      </g>
     </g>
     <g id="text_23">
      <!-- 200 -->
      <g transform="translate(176.364219 318.238438)scale(0.1 -0.1)">
       <use xlink:href="#DejaVuSans-50"/>
       <use x="63.623047" xlink:href="#DejaVuSans-48"/>
       <use x="127.246094" xlink:href="#DejaVuSans-48"/>
      </g>
     </g>
    </g>
    <g id="text_24">
     <!-- Time (ms) -->
     <g transform="translate(113.770781 331.916562)scale(0.1 -0.1)">
      <use xlink:href="#DejaVuSans-84"/>
      <use x="57.958984" xlink:href="#DejaVuSans-105"/>
      <use x="85.742188" xlink:href="#DejaVuSans-109"/>
      <use x="183.154297" xlink:href="#DejaVuSans-101"/>
      <use x="244.677734" xlink:href="#DejaVuSans-32"/>
      <use x="276.464844" xlink:href="#DejaVuSans-40"/>
      <use x="315.478516" xlink:href="#DejaVuSans-109"/>
      <use x="412.890625" xlink:href="#DejaVuSans-115"/>
      <use x="464.990234" xlink:href="#DejaVuSans-41"/>
     </g>
    </g>
   </g>
   <g id="matplotlib.axis_6">
    <g id="ytick_9">
     <g id="line2d_38">
      <g>
       <use style="stroke:#000000;stroke-width:0.8;" x="52.94" xlink:href="#mf4ff72d845" y="288.700084"/>
      </g>
     </g>
     <g id="text_25">
      <!-- −60 -->
      <g transform="translate(24.835313 292.499303)scale(0.1 -0.1)">
       <use xlink:href="#DejaVuSans-8722"/>
       <use x="83.789062" xlink:href="#DejaVuSans-54"/>
       <use x="147.412109" xlink:href="#DejaVuSans-48"/>
      </g>
     </g>
    </g>
    <g id="ytick_10">
     <g id="line2d_39">
      <g>
       <use style="stroke:#000000;stroke-width:0.8;" x="52.94" xlink:href="#mf4ff72d845" y="266.20897"/>
      </g>
     </g>
     <g id="text_26">
      <!-- −40 -->
      <g transform="translate(24.835313 270.008189)scale(0.1 -0.1)">
       <use xlink:href="#DejaVuSans-8722"/>
       <use x="83.789062" xlink:href="#DejaVuSans-52"/>
       <use x="147.412109" xlink:href="#DejaVuSans-48"/>
      </g>
     </g>
    </g>
    <g id="ytick_11">
     <g id="line2d_40">
      <g>
       <use style="stroke:#000000;stroke-width:0.8;" x="52.94" xlink:href="#mf4ff72d845" y="243.717857"/>
      </g>
     </g>
     <g id="text_27">
      <!-- −20 -->
      <g transform="translate(24.835313 247.517076)scale(0.1 -0.1)">
       <use xlink:href="#DejaVuSans-8722"/>
       <use x="83.789062" xlink:href="#DejaVuSans-50"/>
       <use x="147.412109" xlink:href="#DejaVuSans-48"/>
      </g>
     </g>
    </g>
    <g id="ytick_12">
     <g id="line2d_41">
      <g>
       <use style="stroke:#000000;stroke-width:0.8;" x="52.94" xlink:href="#mf4ff72d845" y="221.226744"/>
      </g>
     </g>
     <g id="text_28">
      <!-- 0 -->
      <g transform="translate(39.5775 225.025962)scale(0.1 -0.1)">
       <use xlink:href="#DejaVuSans-48"/>
      </g>
     </g>
    </g>
    <g id="ytick_13">
     <g id="line2d_42">
      <g>
       <use style="stroke:#000000;stroke-width:0.8;" x="52.94" xlink:href="#mf4ff72d845" y="198.73563"/>
      </g>
     </g>
     <g id="text_29">
      <!-- 20 -->
      <g transform="translate(33.215 202.534849)scale(0.1 -0.1)">
       <use xlink:href="#DejaVuSans-50"/>
       <use x="63.623047" xlink:href="#DejaVuSans-48"/>
      </g>
     </g>
    </g>
    <g id="text_30">
     <!-- Vm (mV) -->
     <g transform="translate(18.755625 271.031875)rotate(-90)scale(0.1 -0.1)">
      <use xlink:href="#DejaVuSans-86"/>
      <use x="68.408203" xlink:href="#DejaVuSans-109"/>
      <use x="165.820312" xlink:href="#DejaVuSans-32"/>
      <use x="197.607422" xlink:href="#DejaVuSans-40"/>
      <use x="236.621094" xlink:href="#DejaVuSans-109"/>
      <use x="334.033203" xlink:href="#DejaVuSans-86"/>
      <use x="402.441406" xlink:href="#DejaVuSans-41"/>
     </g>
    </g>
   </g>
   <g id="line2d_43">
    <path clip-path="url(#p3344b8a363)" d="M 60.760909 296.662168 
L 217.179091 296.662168 
L 217.179091 296.662168 
" style="fill:none;stroke:#000000;stroke-linecap:square;stroke-width:1.5;"/>
   </g>
   <g id="line2d_44">
    <path clip-path="url(#p3344b8a363)" d="M 60.760909 296.662168 
L 61.621295 296.552367 
L 62.043666 296.173178 
L 63.545431 294.641294 
L 64.265027 294.310553 
L 65.187986 294.148371 
L 66.721038 294.142514 
L 75.637766 294.589634 
L 89.982748 295.109654 
L 107.878777 295.527893 
L 134.128373 295.881776 
L 175.364329 296.195294 
L 217.179091 296.379729 
L 217.179091 296.379729 
" style="fill:none;stroke:#000000;stroke-linecap:square;stroke-width:1.5;"/>
   </g>
   <g id="line2d_45">
    <path clip-path="url(#p3344b8a363)" d="M 60.760909 296.662168 
L 61.511791 296.552288 
L 61.809016 296.164871 
L 62.340891 294.994115 
L 63.201277 293.198733 
L 63.733152 292.574926 
L 64.23374 292.32075 
L 64.859475 292.274788 
L 66.705394 292.496168 
L 70.991681 292.842694 
L 82.739862 293.592623 
L 97.335137 294.257935 
L 112.806443 294.74733 
L 136.036866 295.251319 
L 166.134734 295.676355 
L 211.156389 296.074187 
L 217.179091 296.113831 
L 217.179091 296.113831 
" style="fill:none;stroke:#000000;stroke-linecap:square;stroke-width:1.5;"/>
   </g>
   <g id="line2d_46">
    <path clip-path="url(#p3344b8a363)" d="M 60.760909 296.662168 
L 61.449218 296.563502 
L 61.699512 296.181324 
L 62.074953 295.108061 
L 63.326424 291.218901 
L 63.733152 290.701278 
L 64.077306 290.585915 
L 64.515321 290.701972 
L 66.001442 291.237966 
L 67.659641 291.408706 
L 83.052729 292.602323 
L 97.037913 293.383838 
L 113.275744 294.03196 
L 133.127197 294.605503 
L 161.926664 295.182368 
L 197.202491 295.665265 
L 217.179091 295.86441 
L 217.179091 295.86441 
" style="fill:none;stroke:#000000;stroke-linecap:square;stroke-width:1.5;"/>
   </g>
   <g id="line2d_47">
    <path clip-path="url(#p3344b8a363)" d="M 60.760909 296.662168 
L 61.417931 296.565129 
L 61.636939 296.189131 
L 61.96545 295.072347 
L 63.529788 288.927224 
L 63.780082 288.805483 
L 64.014733 288.94838 
L 64.562251 289.657733 
L 65.094126 290.161894 
L 65.610358 290.344253 
L 66.595891 290.389158 
L 68.566957 290.543937 
L 77.061314 291.309203 
L 88.731277 292.159682 
L 101.762215 292.88855 
L 118.062619 293.583805 
L 140.901958 294.293567 
L 165.806223 294.850301 
L 202.19273 295.446984 
L 217.179091 295.629604 
L 217.179091 295.629604 
" style="fill:none;stroke:#000000;stroke-linecap:square;stroke-width:1.5;"/>
   </g>
   <g id="line2d_48">
    <path clip-path="url(#p3344b8a363)" d="M 60.760909 296.662168 
L 61.402288 296.559626 
L 61.605652 296.163966 
L 61.902876 294.996829 
L 62.466038 291.654247 
L 63.295137 286.977559 
L 63.561075 286.4649 
L 63.701865 286.549883 
L 63.905229 287.044201 
L 64.781258 289.562228 
L 65.109769 289.790956 
L 65.516497 289.781138 
L 66.955689 289.567242 
L 68.973685 289.814454 
L 77.170817 290.578575 
L 89.231865 291.513086 
L 103.248336 292.359142 
L 120.941002 293.161848 
L 139.212472 293.787527 
L 166.760469 294.512189 
L 202.130157 295.179666 
L 217.179091 295.405879 
L 217.179091 295.405879 
" style="fill:none;stroke:#000000;stroke-linecap:square;stroke-width:1.5;"/>
   </g>
   <g id="line2d_49">
    <path clip-path="url(#p3344b8a363)" d="M 60.760909 296.662168 
L 61.386644 296.559352 
L 61.574365 296.165492 
L 61.855946 294.937055 
L 62.325247 291.679448 
L 63.107416 284.537086 
L 63.686222 279.666428 
L 63.733152 279.652861 
L 63.764439 279.724325 
L 63.873942 280.561939 
L 64.13988 285.253717 
L 64.468391 289.221115 
L 64.734328 290.199143 
L 64.922049 290.289394 
L 65.141056 290.106755 
L 66.345597 288.771766 
L 66.799255 288.750691 
L 71.398409 289.385886 
L 81.222453 290.293921 
L 93.408648 291.215347 
L 107.362546 292.043769 
L 122.286333 292.738132 
L 144.327859 293.541189 
L 173.909495 294.35128 
L 207.167326 295.018209 
L 217.179091 295.185214 
L 217.179091 295.185214 
" style="fill:none;stroke:#000000;stroke-linecap:square;stroke-width:1.5;"/>
   </g>
   <g id="line2d_50">
    <path clip-path="url(#p3344b8a363)" d="M 60.760909 296.662168 
L 61.371001 296.563264 
L 61.558722 296.137766 
L 61.824659 294.852377 
L 62.24703 291.503993 
L 62.716332 286.044867 
L 62.966626 280.712972 
L 63.107416 272.253015 
L 63.185633 252.180201 
L 63.26385 215.957012 
L 63.326424 226.117565 
L 63.654935 287.049642 
L 63.858299 294.474544 
L 63.999089 295.18248 
L 64.030376 295.16572 
L 64.155523 294.796239 
L 64.609181 292.332809 
L 65.328777 288.964608 
L 65.782435 287.718374 
L 66.079659 287.415962 
L 66.31431 287.4481 
L 66.548961 287.693793 
L 66.752325 288.30323 
L 67.800431 292.229635 
L 68.128942 292.456228 
L 68.504383 292.428644 
L 70.7101 291.887891 
L 76.607656 291.843793 
L 89.153648 291.882425 
L 104.624954 292.16516 
L 132.876903 292.943821 
L 176.975598 294.14866 
L 210.217786 294.852967 
L 217.179091 294.978359 
L 217.179091 294.978359 
" style="fill:none;stroke:#000000;stroke-linecap:square;stroke-width:1.5;"/>
   </g>
   <g id="line2d_51">
    <path clip-path="url(#p3344b8a363)" d="M 60.760909 296.662168 
L 61.355358 296.570375 
L 61.527435 296.176713 
L 61.777729 294.919402 
L 62.15317 291.697496 
L 62.544255 286.422528 
L 62.747619 280.759105 
L 62.857122 271.390966 
L 62.935339 237.756351 
L 62.997913 205.680686 
L 63.060486 219.218263 
L 63.357711 287.633225 
L 63.576718 297.143914 
L 63.764439 298.276176 
L 63.842655 298.122091 
L 64.046019 297.008408 
L 65.766791 285.72489 
L 65.985799 285.474649 
L 66.126589 285.6421 
L 66.31431 286.26488 
L 66.627178 288.34376 
L 67.127766 291.275205 
L 67.456277 292.038596 
L 67.737858 292.219894 
L 68.066369 292.147971 
L 69.959218 291.349234 
L 71.695633 291.327402 
L 84.898648 291.274171 
L 98.461461 291.518293 
L 120.315266 292.16342 
L 179.040524 293.923338 
L 214.128631 294.720517 
L 217.179091 294.77929 
L 217.179091 294.77929 
" style="fill:none;stroke:#000000;stroke-linecap:square;stroke-width:1.5;"/>
   </g>
   <g id="line2d_52">
    <path clip-path="url(#p3344b8a363)" d="M 60.760909 296.662168 
L 61.355358 296.559051 
L 61.527435 296.11725 
L 61.777729 294.70497 
L 62.137527 291.195201 
L 62.450394 286.128803 
L 62.622472 279.460997 
L 62.716332 263.879356 
L 62.825836 199.250909 
L 62.904052 224.729856 
L 63.16999 289.821841 
L 63.373354 297.88448 
L 63.514144 298.669091 
L 63.545431 298.647958 
L 63.654935 298.260064 
L 63.952159 296.075836 
L 65.39135 284.79701 
L 65.672931 283.841637 
L 65.782435 283.874965 
L 65.923225 284.307826 
L 66.189163 286.052343 
L 66.893115 291.044384 
L 67.205983 291.738297 
L 67.47192 291.857375 
L 67.784788 291.715552 
L 69.270909 290.756379 
L 70.037435 290.708819 
L 73.823133 290.693244 
L 82.489567 290.710816 
L 95.238924 290.972691 
L 117.045799 291.659995 
L 177.085102 293.613378 
L 215.161095 294.548635 
L 217.179091 294.590104 
L 217.179091 294.590104 
" style="fill:none;stroke:#000000;stroke-linecap:square;stroke-width:1.5;"/>
   </g>
   <g id="patch_13">
    <path d="M 52.94 303.64 
L 52.94 194.28 
" style="fill:none;stroke:#000000;stroke-linecap:square;stroke-linejoin:miter;stroke-width:0.8;"/>
   </g>
   <g id="patch_14">
    <path d="M 225 303.64 
L 225 194.28 
" style="fill:none;stroke:#000000;stroke-linecap:square;stroke-linejoin:miter;stroke-width:0.8;"/>
   </g>
   <g id="patch_15">
    <path d="M 52.94 303.64 
L 225 303.64 
" style="fill:none;stroke:#000000;stroke-linecap:square;stroke-linejoin:miter;stroke-width:0.8;"/>
   </g>
   <g id="patch_16">
    <path d="M 52.94 194.28 
L 225 194.28 
" style="fill:none;stroke:#000000;stroke-linecap:square;stroke-linejoin:miter;stroke-width:0.8;"/>
   </g>
   <g id="text_31">
    <!-- Apical + Basal -->
    <g transform="translate(95.6425 188.28)scale(0.12 -0.12)">
     <defs>
      <path d="M 46 62.703125 
L 46 35.5 
L 73.1875 35.5 
L 73.1875 27.203125 
L 46 27.203125 
L 46 0 
L 37.796875 0 
L 37.796875 27.203125 
L 10.59375 27.203125 
L 10.59375 35.5 
L 37.796875 35.5 
L 37.796875 62.703125 
z
" id="DejaVuSans-43"/>
     </defs>
     <use xlink:href="#DejaVuSans-65"/>
     <use x="68.408203" xlink:href="#DejaVuSans-112"/>
     <use x="131.884766" xlink:href="#DejaVuSans-105"/>
     <use x="159.667969" xlink:href="#DejaVuSans-99"/>
     <use x="214.648438" xlink:href="#DejaVuSans-97"/>
     <use x="275.927734" xlink:href="#DejaVuSans-108"/>
     <use x="303.710938" xlink:href="#DejaVuSans-32"/>
     <use x="335.498047" xlink:href="#DejaVuSans-43"/>
     <use x="419.287109" xlink:href="#DejaVuSans-32"/>
     <use x="451.074219" xlink:href="#DejaVuSans-66"/>
     <use x="519.677734" xlink:href="#DejaVuSans-97"/>
     <use x="580.957031" xlink:href="#DejaVuSans-115"/>
     <use x="633.056641" xlink:href="#DejaVuSans-97"/>
     <use x="694.335938" xlink:href="#DejaVuSans-108"/>
    </g>
   </g>
  </g>
  <g id="axes_4">
   <g id="patch_17">
    <path d="M 277.94 303.64 
L 450 303.64 
L 450 194.28 
L 277.94 194.28 
z
" style="fill:#ffffff;"/>
   </g>
   <g id="matplotlib.axis_7">
    <g id="xtick_10">
     <g id="line2d_53">
      <g>
       <use style="stroke:#000000;stroke-width:0.8;" x="285.760909" xlink:href="#mcdbed37cb7" y="303.64"/>
      </g>
     </g>
     <g id="text_32">
      <!-- 0 -->
      <g transform="translate(282.579659 318.238438)scale(0.1 -0.1)">
       <use xlink:href="#DejaVuSans-48"/>
      </g>
     </g>
    </g>
    <g id="xtick_11">
     <g id="line2d_54">
      <g>
       <use style="stroke:#000000;stroke-width:0.8;" x="321.149638" xlink:href="#mcdbed37cb7" y="303.64"/>
      </g>
     </g>
     <g id="text_33">
      <!-- 2 -->
      <g transform="translate(317.968388 318.238438)scale(0.1 -0.1)">
       <use xlink:href="#DejaVuSans-50"/>
      </g>
     </g>
    </g>
    <g id="xtick_12">
     <g id="line2d_55">
      <g>
       <use style="stroke:#000000;stroke-width:0.8;" x="356.538367" xlink:href="#mcdbed37cb7" y="303.64"/>
      </g>
     </g>
     <g id="text_34">
      <!-- 4 -->
      <g transform="translate(353.357117 318.238438)scale(0.1 -0.1)">
       <use xlink:href="#DejaVuSans-52"/>
      </g>
     </g>
    </g>
    <g id="xtick_13">
     <g id="line2d_56">
      <g>
       <use style="stroke:#000000;stroke-width:0.8;" x="391.927096" xlink:href="#mcdbed37cb7" y="303.64"/>
      </g>
     </g>
     <g id="text_35">
      <!-- 6 -->
      <g transform="translate(388.745846 318.238438)scale(0.1 -0.1)">
       <use xlink:href="#DejaVuSans-54"/>
      </g>
     </g>
    </g>
    <g id="xtick_14">
     <g id="line2d_57">
      <g>
       <use style="stroke:#000000;stroke-width:0.8;" x="427.315825" xlink:href="#mcdbed37cb7" y="303.64"/>
      </g>
     </g>
     <g id="text_36">
      <!-- 8 -->
      <g transform="translate(424.134575 318.238438)scale(0.1 -0.1)">
       <defs>
        <path d="M 31.78125 34.625 
Q 24.75 34.625 20.71875 30.859375 
Q 16.703125 27.09375 16.703125 20.515625 
Q 16.703125 13.921875 20.71875 10.15625 
Q 24.75 6.390625 31.78125 6.390625 
Q 38.8125 6.390625 42.859375 10.171875 
Q 46.921875 13.96875 46.921875 20.515625 
Q 46.921875 27.09375 42.890625 30.859375 
Q 38.875 34.625 31.78125 34.625 
z
M 21.921875 38.8125 
Q 15.578125 40.375 12.03125 44.71875 
Q 8.5 49.078125 8.5 55.328125 
Q 8.5 64.0625 14.71875 69.140625 
Q 20.953125 74.21875 31.78125 74.21875 
Q 42.671875 74.21875 48.875 69.140625 
Q 55.078125 64.0625 55.078125 55.328125 
Q 55.078125 49.078125 51.53125 44.71875 
Q 48 40.375 41.703125 38.8125 
Q 48.828125 37.15625 52.796875 32.3125 
Q 56.78125 27.484375 56.78125 20.515625 
Q 56.78125 9.90625 50.3125 4.234375 
Q 43.84375 -1.421875 31.78125 -1.421875 
Q 19.734375 -1.421875 13.25 4.234375 
Q 6.78125 9.90625 6.78125 20.515625 
Q 6.78125 27.484375 10.78125 32.3125 
Q 14.796875 37.15625 21.921875 38.8125 
z
M 18.3125 54.390625 
Q 18.3125 48.734375 21.84375 45.5625 
Q 25.390625 42.390625 31.78125 42.390625 
Q 38.140625 42.390625 41.71875 45.5625 
Q 45.3125 48.734375 45.3125 54.390625 
Q 45.3125 60.0625 41.71875 63.234375 
Q 38.140625 66.40625 31.78125 66.40625 
Q 25.390625 66.40625 21.84375 63.234375 
Q 18.3125 60.0625 18.3125 54.390625 
z
" id="DejaVuSans-56"/>
       </defs>
       <use xlink:href="#DejaVuSans-56"/>
      </g>
     </g>
    </g>
    <g id="text_37">
     <!-- total g-syn (nS) -->
     <g transform="translate(325.403594 331.916562)scale(0.1 -0.1)">
      <defs>
       <path d="M 18.3125 70.21875 
L 18.3125 54.6875 
L 36.8125 54.6875 
L 36.8125 47.703125 
L 18.3125 47.703125 
L 18.3125 18.015625 
Q 18.3125 11.328125 20.140625 9.421875 
Q 21.96875 7.515625 27.59375 7.515625 
L 36.8125 7.515625 
L 36.8125 0 
L 27.59375 0 
Q 17.1875 0 13.234375 3.875 
Q 9.28125 7.765625 9.28125 18.015625 
L 9.28125 47.703125 
L 2.6875 47.703125 
L 2.6875 54.6875 
L 9.28125 54.6875 
L 9.28125 70.21875 
z
" id="DejaVuSans-116"/>
       <path d="M 45.40625 27.984375 
Q 45.40625 37.75 41.375 43.109375 
Q 37.359375 48.484375 30.078125 48.484375 
Q 22.859375 48.484375 18.828125 43.109375 
Q 14.796875 37.75 14.796875 27.984375 
Q 14.796875 18.265625 18.828125 12.890625 
Q 22.859375 7.515625 30.078125 7.515625 
Q 37.359375 7.515625 41.375 12.890625 
Q 45.40625 18.265625 45.40625 27.984375 
z
M 54.390625 6.78125 
Q 54.390625 -7.171875 48.1875 -13.984375 
Q 42 -20.796875 29.203125 -20.796875 
Q 24.46875 -20.796875 20.265625 -20.09375 
Q 16.0625 -19.390625 12.109375 -17.921875 
L 12.109375 -9.1875 
Q 16.0625 -11.328125 19.921875 -12.34375 
Q 23.78125 -13.375 27.78125 -13.375 
Q 36.625 -13.375 41.015625 -8.765625 
Q 45.40625 -4.15625 45.40625 5.171875 
L 45.40625 9.625 
Q 42.625 4.78125 38.28125 2.390625 
Q 33.9375 0 27.875 0 
Q 17.828125 0 11.671875 7.65625 
Q 5.515625 15.328125 5.515625 27.984375 
Q 5.515625 40.671875 11.671875 48.328125 
Q 17.828125 56 27.875 56 
Q 33.9375 56 38.28125 53.609375 
Q 42.625 51.21875 45.40625 46.390625 
L 45.40625 54.6875 
L 54.390625 54.6875 
z
" id="DejaVuSans-103"/>
       <path d="M 4.890625 31.390625 
L 31.203125 31.390625 
L 31.203125 23.390625 
L 4.890625 23.390625 
z
" id="DejaVuSans-45"/>
       <path d="M 53.515625 70.515625 
L 53.515625 60.890625 
Q 47.90625 63.578125 42.921875 64.890625 
Q 37.9375 66.21875 33.296875 66.21875 
Q 25.25 66.21875 20.875 63.09375 
Q 16.5 59.96875 16.5 54.203125 
Q 16.5 49.359375 19.40625 46.890625 
Q 22.3125 44.4375 30.421875 42.921875 
L 36.375 41.703125 
Q 47.40625 39.59375 52.65625 34.296875 
Q 57.90625 29 57.90625 20.125 
Q 57.90625 9.515625 50.796875 4.046875 
Q 43.703125 -1.421875 29.984375 -1.421875 
Q 24.8125 -1.421875 18.96875 -0.25 
Q 13.140625 0.921875 6.890625 3.21875 
L 6.890625 13.375 
Q 12.890625 10.015625 18.65625 8.296875 
Q 24.421875 6.59375 29.984375 6.59375 
Q 38.421875 6.59375 43.015625 9.90625 
Q 47.609375 13.234375 47.609375 19.390625 
Q 47.609375 24.75 44.3125 27.78125 
Q 41.015625 30.8125 33.5 32.328125 
L 27.484375 33.5 
Q 16.453125 35.6875 11.515625 40.375 
Q 6.59375 45.0625 6.59375 53.421875 
Q 6.59375 63.09375 13.40625 68.65625 
Q 20.21875 74.21875 32.171875 74.21875 
Q 37.3125 74.21875 42.625 73.28125 
Q 47.953125 72.359375 53.515625 70.515625 
z
" id="DejaVuSans-83"/>
      </defs>
      <use xlink:href="#DejaVuSans-116"/>
      <use x="39.208984" xlink:href="#DejaVuSans-111"/>
      <use x="100.390625" xlink:href="#DejaVuSans-116"/>
      <use x="139.599609" xlink:href="#DejaVuSans-97"/>
      <use x="200.878906" xlink:href="#DejaVuSans-108"/>
      <use x="228.662109" xlink:href="#DejaVuSans-32"/>
      <use x="260.449219" xlink:href="#DejaVuSans-103"/>
      <use x="323.925781" xlink:href="#DejaVuSans-45"/>
      <use x="360.009766" xlink:href="#DejaVuSans-115"/>
      <use x="412.109375" xlink:href="#DejaVuSans-121"/>
      <use x="471.289062" xlink:href="#DejaVuSans-110"/>
      <use x="534.667969" xlink:href="#DejaVuSans-32"/>
      <use x="566.455078" xlink:href="#DejaVuSans-40"/>
      <use x="605.46875" xlink:href="#DejaVuSans-110"/>
      <use x="668.847656" xlink:href="#DejaVuSans-83"/>
      <use x="732.324219" xlink:href="#DejaVuSans-41"/>
     </g>
    </g>
   </g>
   <g id="matplotlib.axis_8">
    <g id="ytick_14">
     <g id="line2d_58">
      <g>
       <use style="stroke:#000000;stroke-width:0.8;" x="277.94" xlink:href="#mf4ff72d845" y="290.811245"/>
      </g>
     </g>
     <g id="text_38">
      <!-- −60 -->
      <g transform="translate(249.835312 294.610464)scale(0.1 -0.1)">
       <use xlink:href="#DejaVuSans-8722"/>
       <use x="83.789062" xlink:href="#DejaVuSans-54"/>
       <use x="147.412109" xlink:href="#DejaVuSans-48"/>
      </g>
     </g>
    </g>
    <g id="ytick_15">
     <g id="line2d_59">
      <g>
       <use style="stroke:#000000;stroke-width:0.8;" x="277.94" xlink:href="#mf4ff72d845" y="268.614582"/>
      </g>
     </g>
     <g id="text_39">
      <!-- −40 -->
      <g transform="translate(249.835312 272.413801)scale(0.1 -0.1)">
       <use xlink:href="#DejaVuSans-8722"/>
       <use x="83.789062" xlink:href="#DejaVuSans-52"/>
       <use x="147.412109" xlink:href="#DejaVuSans-48"/>
      </g>
     </g>
    </g>
    <g id="ytick_16">
     <g id="line2d_60">
      <g>
       <use style="stroke:#000000;stroke-width:0.8;" x="277.94" xlink:href="#mf4ff72d845" y="246.417919"/>
      </g>
     </g>
     <g id="text_40">
      <!-- −20 -->
      <g transform="translate(249.835312 250.217137)scale(0.1 -0.1)">
       <use xlink:href="#DejaVuSans-8722"/>
       <use x="83.789062" xlink:href="#DejaVuSans-50"/>
       <use x="147.412109" xlink:href="#DejaVuSans-48"/>
      </g>
     </g>
    </g>
    <g id="ytick_17">
     <g id="line2d_61">
      <g>
       <use style="stroke:#000000;stroke-width:0.8;" x="277.94" xlink:href="#mf4ff72d845" y="224.221255"/>
      </g>
     </g>
     <g id="text_41">
      <!-- 0 -->
      <g transform="translate(264.5775 228.020474)scale(0.1 -0.1)">
       <use xlink:href="#DejaVuSans-48"/>
      </g>
     </g>
    </g>
    <g id="ytick_18">
     <g id="line2d_62">
      <g>
       <use style="stroke:#000000;stroke-width:0.8;" x="277.94" xlink:href="#mf4ff72d845" y="202.024592"/>
      </g>
     </g>
     <g id="text_42">
      <!-- 20 -->
      <g transform="translate(258.215 205.82381)scale(0.1 -0.1)">
       <use xlink:href="#DejaVuSans-50"/>
       <use x="63.623047" xlink:href="#DejaVuSans-48"/>
      </g>
     </g>
    </g>
    <g id="text_43">
     <!-- max Vm (mV) -->
     <g transform="translate(243.755625 283.514688)rotate(-90)scale(0.1 -0.1)">
      <defs>
       <path d="M 54.890625 54.6875 
L 35.109375 28.078125 
L 55.90625 0 
L 45.3125 0 
L 29.390625 21.484375 
L 13.484375 0 
L 2.875 0 
L 24.125 28.609375 
L 4.6875 54.6875 
L 15.28125 54.6875 
L 29.78125 35.203125 
L 44.28125 54.6875 
z
" id="DejaVuSans-120"/>
      </defs>
      <use xlink:href="#DejaVuSans-109"/>
      <use x="97.412109" xlink:href="#DejaVuSans-97"/>
      <use x="158.691406" xlink:href="#DejaVuSans-120"/>
      <use x="217.871094" xlink:href="#DejaVuSans-32"/>
      <use x="249.658203" xlink:href="#DejaVuSans-86"/>
      <use x="318.066406" xlink:href="#DejaVuSans-109"/>
      <use x="415.478516" xlink:href="#DejaVuSans-32"/>
      <use x="447.265625" xlink:href="#DejaVuSans-40"/>
      <use x="486.279297" xlink:href="#DejaVuSans-109"/>
      <use x="583.691406" xlink:href="#DejaVuSans-86"/>
      <use x="652.099609" xlink:href="#DejaVuSans-41"/>
     </g>
    </g>
   </g>
   <g id="line2d_63">
    <path clip-path="url(#pab3fc679f9)" d="M 285.760909 298.669091 
L 287.340891 298.332532 
L 288.920872 298.017083 
L 290.500854 297.721978 
L 292.080836 297.444015 
L 293.660817 297.171085 
L 295.240799 296.912333 
L 296.820781 296.667969 
L 298.400762 296.435817 
L 299.980744 296.206776 
L 301.560725 295.98457 
L 303.140707 295.772829 
L 304.720689 295.570757 
L 306.30067 295.374913 
L 307.880652 295.181823 
L 309.460634 294.989371 
L 311.040615 294.803189 
L 312.620597 294.623097 
L 314.200579 294.447065 
L 315.78056 294.274326 
L 317.360542 294.102596 
L 318.940523 293.928456 
L 320.520505 293.756664 
L 322.100487 293.588123 
L 323.680468 293.421364 
L 325.26045 293.256311 
L 326.840432 293.092519 
L 328.420413 292.926894 
L 330.000395 292.758792 
L 331.580376 292.591069 
L 333.160358 292.424064 
L 334.74034 292.256865 
L 336.320321 292.090429 
L 337.900303 291.923262 
L 339.480285 291.751078 
L 341.060266 291.576871 
L 342.640248 291.401222 
L 344.22023 291.2238 
L 345.800211 291.044611 
L 347.380193 290.864197 
L 348.960174 290.677517 
L 350.540156 290.48412 
L 352.120138 290.28786 
L 353.700119 290.088815 
L 355.280101 289.885117 
L 356.860083 289.676323 
L 358.440064 289.453405 
L 360.020046 289.220413 
L 361.600028 288.980033 
L 363.180009 288.733483 
L 364.759991 288.477949 
L 366.339972 288.19701 
L 367.919954 287.894936 
L 369.499936 287.574377 
L 371.079917 287.227457 
L 372.659899 286.842966 
L 374.239881 286.420656 
L 375.819862 285.930577 
L 377.399844 285.352179 
L 378.979826 284.626055 
L 380.559807 283.646641 
L 382.139789 282.035554 
L 383.71977 258.339862 
L 385.299752 239.087286 
L 386.879734 234.128492 
L 388.459715 231.26279 
L 390.039697 228.95202 
L 391.619679 227.197083 
L 393.19966 225.768298 
L 394.779642 224.452488 
L 396.359624 223.35093 
L 397.939605 222.317117 
L 399.519587 221.545306 
L 401.099568 220.752106 
L 402.67955 219.869614 
L 404.259532 218.948743 
L 405.839513 218.137059 
L 407.419495 217.647891 
L 408.999477 216.786501 
L 410.579458 216.313108 
L 412.15944 215.463355 
L 413.739421 214.997442 
L 415.319403 214.419102 
L 416.899385 213.656787 
L 418.479366 213.043791 
L 420.059348 212.503479 
L 421.63933 211.994784 
L 423.219311 211.478961 
L 424.799293 210.944866 
L 426.379275 210.381052 
L 427.959256 209.798497 
L 429.539238 209.199893 
L 431.119219 208.608574 
L 432.699201 208.025972 
L 434.279183 207.49849 
L 435.859164 207.048601 
L 437.439146 206.704554 
L 439.019128 206.411537 
L 440.599109 205.745386 
L 442.179091 205.220769 
" style="fill:none;stroke:#0000ff;stroke-linecap:square;stroke-width:1.5;"/>
   </g>
   <g id="line2d_64">
    <path clip-path="url(#pab3fc679f9)" d="M 285.760909 298.669091 
L 287.340891 298.388436 
L 288.920872 298.125289 
L 290.500854 297.879792 
L 292.080836 297.648848 
L 293.660817 297.427295 
L 295.240799 297.209161 
L 296.820781 297.001326 
L 298.400762 296.803167 
L 299.980744 296.613868 
L 301.560725 296.428561 
L 303.140707 296.24541 
L 304.720689 296.067532 
L 306.30067 295.896396 
L 307.880652 295.731601 
L 309.460634 295.570153 
L 311.040615 295.411286 
L 312.620597 295.255585 
L 314.200579 295.10037 
L 315.78056 294.948859 
L 317.360542 294.801451 
L 318.940523 294.655536 
L 320.520505 294.511601 
L 322.100487 294.369198 
L 323.680468 294.229204 
L 325.26045 294.089792 
L 326.840432 293.950131 
L 328.420413 293.811868 
L 330.000395 293.673678 
L 331.580376 293.536606 
L 333.160358 293.40028 
L 334.74034 293.264834 
L 336.320321 293.130836 
L 337.900303 292.996735 
L 339.480285 292.860297 
L 341.060266 292.722058 
L 342.640248 292.583562 
L 344.22023 292.445174 
L 345.800211 292.306471 
L 347.380193 292.167612 
L 348.960174 292.029392 
L 350.540156 291.890233 
L 352.120138 291.745478 
L 353.700119 291.597714 
L 355.280101 291.448157 
L 356.860083 291.297528 
L 358.440064 291.145533 
L 360.020046 290.991737 
L 361.600028 290.836959 
L 363.180009 290.676476 
L 364.759991 290.507544 
L 366.339972 290.334025 
L 367.919954 290.156851 
L 369.499936 289.976438 
L 371.079917 289.792166 
L 372.659899 289.601619 
L 374.239881 289.398702 
L 375.819862 289.183704 
L 377.399844 288.958049 
L 378.979826 288.724318 
L 380.559807 288.479266 
L 382.139789 288.215128 
L 383.71977 287.929401 
L 385.299752 287.620593 
L 386.879734 287.280326 
L 388.459715 286.897136 
L 390.039697 286.472153 
L 391.619679 285.978041 
L 393.19966 285.383473 
L 394.779642 284.626197 
L 396.359624 283.544789 
L 397.939605 281.563859 
L 399.519587 243.773448 
L 401.099568 234.246572 
L 402.67955 229.963461 
L 404.259532 227.164346 
L 405.839513 225.025321 
L 407.419495 223.319235 
L 408.999477 221.739078 
L 410.579458 220.3503 
L 412.15944 219.047457 
L 413.739421 217.951809 
L 415.319403 216.796071 
L 416.899385 215.54577 
L 418.479366 214.272986 
L 420.059348 213.173733 
L 421.63933 212.026792 
L 423.219311 210.648373 
L 424.799293 209.544213 
L 426.379275 208.273124 
L 427.959256 207.101639 
L 429.539238 206.385324 
L 431.119219 205.241282 
L 432.699201 204.326476 
L 434.279183 203.653322 
L 435.859164 203.123451 
L 437.439146 202.663371 
L 439.019128 202.226948 
L 440.599109 201.744903 
L 442.179091 201.316023 
" style="fill:none;stroke:#ff0000;stroke-linecap:square;stroke-width:1.5;"/>
   </g>
   <g id="line2d_65">
    <path clip-path="url(#pab3fc679f9)" d="M 285.760909 298.669091 
L 287.340891 298.358643 
L 288.920872 298.066679 
L 290.500854 297.793153 
L 292.080836 297.535642 
L 293.660817 297.283397 
L 295.240799 297.040461 
L 296.820781 296.809631 
L 298.400762 296.589998 
L 299.980744 296.377436 
L 301.560725 296.164668 
L 303.140707 295.96011 
L 304.720689 295.763802 
L 306.30067 295.575134 
L 307.880652 295.390501 
L 309.460634 295.205928 
L 311.040615 295.022429 
L 312.620597 294.844169 
L 314.200579 294.670994 
L 315.78056 294.502072 
L 317.360542 294.333752 
L 318.940523 294.165726 
L 320.520505 293.995983 
L 322.100487 293.827624 
L 323.680468 293.662088 
L 325.26045 293.499207 
L 326.840432 293.336405 
L 328.420413 293.173038 
L 330.000395 293.008559 
L 331.580376 292.840368 
L 333.160358 292.672388 
L 334.74034 292.505576 
L 336.320321 292.33889 
L 337.900303 292.170485 
L 339.480285 292.000346 
L 341.060266 291.825988 
L 342.640248 291.646634 
L 344.22023 291.465927 
L 345.800211 291.284512 
L 347.380193 291.100593 
L 348.960174 290.912958 
L 350.540156 290.71867 
L 352.120138 290.514468 
L 353.700119 290.30507 
L 355.280101 290.092131 
L 356.860083 289.875064 
L 358.440064 289.650924 
L 360.020046 289.406697 
L 361.600028 289.148769 
L 363.180009 288.880217 
L 364.759991 288.602597 
L 366.339972 288.303361 
L 367.919954 287.974874 
L 369.499936 287.615451 
L 371.079917 287.219126 
L 372.659899 286.771079 
L 374.239881 286.266539 
L 375.819862 285.6518 
L 377.399844 284.886548 
L 378.979826 283.801812 
L 380.559807 281.871989 
L 382.139789 245.821766 
L 383.71977 235.393168 
L 385.299752 230.917147 
L 386.879734 228.3182 
L 388.459715 225.927599 
L 390.039697 224.375239 
L 391.619679 222.674897 
L 393.19966 221.396753 
L 394.779642 220.13152 
L 396.359624 219.020514 
L 397.939605 217.816902 
L 399.519587 216.762691 
L 401.099568 215.760437 
L 402.67955 214.861047 
L 404.259532 214.009655 
L 405.839513 212.788516 
L 407.419495 211.986655 
L 408.999477 210.830729 
L 410.579458 210.121059 
L 412.15944 208.878724 
L 413.739421 208.065245 
L 415.319403 207.420587 
L 416.899385 206.368156 
L 418.479366 205.567518 
L 420.059348 204.936949 
L 421.63933 204.406796 
L 423.219311 203.926285 
L 424.799293 203.466044 
L 426.379275 203.005369 
L 427.959256 202.533125 
L 429.539238 202.050455 
L 431.119219 201.570961 
L 432.699201 201.108125 
L 434.279183 200.696866 
L 435.859164 200.373464 
L 437.439146 200.185701 
L 439.019128 200.206251 
L 440.599109 199.668812 
L 442.179091 199.250909 
" style="fill:none;stroke:#000000;stroke-linecap:square;stroke-width:1.5;"/>
   </g>
   <g id="patch_18">
    <path d="M 277.94 303.64 
L 277.94 194.28 
" style="fill:none;stroke:#000000;stroke-linecap:square;stroke-linejoin:miter;stroke-width:0.8;"/>
   </g>
   <g id="patch_19">
    <path d="M 450 303.64 
L 450 194.28 
" style="fill:none;stroke:#000000;stroke-linecap:square;stroke-linejoin:miter;stroke-width:0.8;"/>
   </g>
   <g id="patch_20">
    <path d="M 277.94 303.64 
L 450 303.64 
" style="fill:none;stroke:#000000;stroke-linecap:square;stroke-linejoin:miter;stroke-width:0.8;"/>
   </g>
   <g id="patch_21">
    <path d="M 277.94 194.28 
L 450 194.28 
" style="fill:none;stroke:#000000;stroke-linecap:square;stroke-linejoin:miter;stroke-width:0.8;"/>
   </g>
  </g>
 </g>
 <defs>
  <clipPath id="pf11c39d86c">
   <rect height="109.36" width="172.06" x="52.94" y="26.88"/>
  </clipPath>
  <clipPath id="p69821b435c">
   <rect height="109.36" width="172.06" x="277.94" y="26.88"/>
  </clipPath>
  <clipPath id="p3344b8a363">
   <rect height="109.36" width="172.06" x="52.94" y="194.28"/>
  </clipPath>
  <clipPath id="pab3fc679f9">
   <rect height="109.36" width="172.06" x="277.94" y="194.28"/>
  </clipPath>
 </defs>
</svg>
